<?xml version="1.0" encoding="UTF-8" standalone="no"?>
<!-- Created with Inkscape (http://www.inkscape.org/) -->

<svg
   xmlns:dc="http://purl.org/dc/elements/1.1/"
   xmlns:cc="http://creativecommons.org/ns#"
   xmlns:rdf="http://www.w3.org/1999/02/22-rdf-syntax-ns#"
   xmlns="http://www.w3.org/2000/svg"
   xmlns:sodipodi="http://sodipodi.sourceforge.net/DTD/sodipodi-0.dtd"
   xmlns:inkscape="http://www.inkscape.org/namespaces/inkscape"
   id="svg4149"
   version="1.1"
   inkscape:version="0.92.3 (2405546, 2018-03-11)"
   xml:space="preserve"
   width="1114.025"
   height="74.131134"
   viewBox="0 0 1044.3984 69.49794"
   sodipodi:docname="header_pres.svg"><metadata
     id="metadata4155"><rdf:RDF><cc:Work
         rdf:about=""><dc:format>image/svg+xml</dc:format><dc:type
           rdf:resource="http://purl.org/dc/dcmitype/StillImage" /><dc:title /></cc:Work></rdf:RDF></metadata><defs
     id="defs4153"><clipPath
       clipPathUnits="userSpaceOnUse"
       id="clipPath4163"><path
         d="M 0,595.28 H 841.89 V 0 H 0 Z"
         id="path4165"
         inkscape:connector-curvature="0" /></clipPath><clipPath
       clipPathUnits="userSpaceOnUse"
       id="clipPath18"><path
         d="M 0,595.28 H 841.89 V 0 H 0 Z"
         id="path16"
         inkscape:connector-curvature="0" /></clipPath></defs><sodipodi:namedview
     pagecolor="#ffffff"
     bordercolor="#666666"
     borderopacity="1"
     objecttolerance="10"
     gridtolerance="10"
     guidetolerance="10"
     inkscape:pageopacity="0"
     inkscape:pageshadow="2"
     inkscape:window-width="1920"
     inkscape:window-height="1027"
     id="namedview4151"
     showgrid="true"
     inkscape:zoom="1.4142136"
     inkscape:cx="654.36325"
     inkscape:cy="-0.200287"
     inkscape:window-x="1358"
     inkscape:window-y="-8"
     inkscape:window-maximized="1"
     inkscape:current-layer="g4157"
     fit-margin-top="0"
     fit-margin-left="0"
     fit-margin-right="0"
     fit-margin-bottom="0"
     inkscape:snap-others="false"><inkscape:grid
       type="xygrid"
       id="grid4940"
       originx="-4.7988151"
       originy="-673.77"
       spacingx="1"
       spacingy="1" /></sodipodi:namedview><g
     id="g4157"
     inkscape:groupmode="layer"
     inkscape:label="Logo_aguasdomirante_VerdeeAzul"
     transform="matrix(1.25,0,0,-1.25,-4.7988153,743.26796)"><path
       style="fill:#2a3386;fill-opacity:1"
       d="M 3.8390622,594.61437 V 569.01906 H 367.625 c 0,0 13.86377,-0.23681 19.26094,3.475 l 20.6125,14.17656 a 24.786002,24.786002 0 0 0 0.22343,0.15313 l 0.0516,0.0359 c -0.0111,-0.007 -0.0202,-0.0159 -0.0313,-0.0234 a 24.786002,24.786002 0 0 0 13.85626,4.26563 24.786002,24.786002 0 0 0 24.62812,-22.08282 h 393.13128 v 25.59531 H 3.8390522 Z M 407.10469,586.37062 c -0.40505,-0.29332 -0.80019,-0.5894 -1.17344,-0.89374 a 24.786002,24.786002 0 0 0 1.17344,0.89374 z m -1.77031,-1.4 c -0.47952,-0.4166 -0.93333,-0.83946 -1.35938,-1.27031 a 24.786002,24.786002 0 0 0 1.35938,1.27031 z m -1.55156,-1.45937 c -0.55598,-0.57471 -1.0638,-1.15894 -1.53282,-1.74844 a 24.786002,24.786002 0 0 0 1.53282,1.74844 z m -1.67188,-1.92969 c -0.45394,-0.58193 -0.87254,-1.16642 -1.25,-1.75156 a 24.786002,24.786002 0 0 0 1.25,1.75156 z m -1.39063,-1.9625 c -0.35957,-0.57025 -0.67899,-1.1357 -0.97344,-1.69844 a 24.786002,24.786002 0 0 0 0.97344,1.69844 z m -1.36875,-2.47656 c -0.22097,-0.46096 -0.42527,-0.91551 -0.60781,-1.3625 a 24.786002,24.786002 0 0 0 0.60781,1.3625 z"
       id="rect4923-7-4"
       inkscape:connector-curvature="0" /><path
       inkscape:connector-curvature="0"
       style="fill:#009ba4;fill-opacity:1"
       d="m 839.35784,539.01603 v 25.59531 H 475.5719 c 0,0 -13.86376,0.23681 -19.26093,-3.475 l -20.61251,-14.17656 a 24.786002,24.786002 0 0 0 -0.22343,-0.15313 l -0.0516,-0.0359 c 0.011,0.008 0.0202,0.0159 0.0313,0.0234 a 24.786002,24.786002 0 0 0 -13.85625,-4.26563 24.786002,24.786002 0 0 0 -24.62812,22.08281 H 3.839062 v -25.59531 z m -403.26562,8.24375 c 0.40504,0.29332 0.80018,0.58941 1.17344,0.89375 a 24.786002,24.786002 0 0 0 -1.17344,-0.89375 z m 1.77031,1.4 c 0.47951,0.41661 0.93333,0.83947 1.35937,1.27031 a 24.786002,24.786002 0 0 0 -1.35937,-1.27031 z m 1.55156,1.45938 c 0.55597,0.57471 1.0638,1.15894 1.53281,1.74843 a 24.786002,24.786002 0 0 0 -1.53281,-1.74843 z m 1.67188,1.92968 c 0.45393,0.58193 0.87253,1.16643 1.25,1.75157 a 24.786002,24.786002 0 0 0 -1.25,-1.75157 z m 1.39062,1.9625 c 0.35958,0.57026 0.67899,1.1357 0.97344,1.69844 a 24.786002,24.786002 0 0 0 -0.97344,-1.69844 z m 1.36875,2.47657 c 0.22097,0.46095 0.42528,0.91551 0.60781,1.3625 a 24.786002,24.786002 0 0 0 -0.60781,-1.3625 z"
       id="rect4923-7-4-3" /><g
       transform="matrix(0.256,0,0,0.256,375.98194,494.72172)"
       id="g12"><g
         id="g14"
         clip-path="url(#clipPath18)"><g
           id="g20"
           transform="translate(218.6792,257.5049)"><path
             d="m 0,0 c -7.305,0 -14.336,3.404 -19.798,9.588 -4.641,5.256 -10.848,13.703 -16.849,21.873 -2.116,2.879 -4.181,5.689 -6.144,8.316 v 23.657 h -13.74 v -8.121 c -6.874,5.247 -15.403,8.4 -23.429,8.4 -21.381,0 -38.777,-17.155 -38.777,-38.24 0,-21.088 17.396,-38.243 38.777,-38.243 8.638,0 16.361,2.725 23.429,8.297 v -7.205 h 13.74 V 9.389 l -0.005,0.545 -0.149,0.183 -7.932,10.395 -1.741,-2.051 C -52.666,18.404 -57.404,12.82 -59.123,10.887 -65.449,3.777 -72.265,0.32 -79.96,0.32 c -14.092,0 -25.558,11.284 -25.558,25.153 0,13.867 11.466,25.151 25.558,25.151 7.829,0 15.07,-3.4 19.866,-9.327 3.434,-4.246 7.694,-10.172 12.204,-16.447 6.656,-9.26 13.537,-18.836 18.876,-24.567 8.003,-8.59 18.308,-13.322 29.014,-13.322 7.859,0 15.411,2.365 21.837,6.84 5.422,3.775 9.723,8.814 12.578,14.691 H 18.872 C 14.136,3.16 7.29,0 0,0"
             style="fill:#2a3386;fill-opacity:1;fill-rule:nonzero;stroke:none"
             id="path22"
             inkscape:connector-curvature="0" /></g><g
           id="g24"
           transform="translate(217.3936,323.9849)"><path
             d="m 0,0 c -9.594,0 -23.811,-2.226 -36.453,-21.472 l -0.821,-1.25 7.914,-10.914 1.746,2.47 c 11.352,16.067 20.72,18.128 27.614,18.128 11.41,0 21.235,-7.562 24.268,-18.315 l -34.052,-0.025 v -13.233 h 47.567 l 0.222,1.918 c 0.169,1.461 0.254,2.953 0.254,4.434 C 38.259,-17.163 21.096,0 0,0"
             style="fill:#009ba4;fill-opacity:1;fill-rule:nonzero;stroke:none"
             id="path26"
             inkscape:connector-curvature="0" /></g></g></g></g></svg>